<?xml version="1.0" encoding="UTF-8" standalone="no"?><!DOCTYPE svg PUBLIC "-//W3C//DTD SVG 1.1//EN" "http://www.w3.org/Graphics/SVG/1.1/DTD/svg11.dtd"><!-- Generated by graphviz version 2.40.1 (20161225.0304)
 --><!-- Title: concept_lattice Pages: 1 --><svg xmlns="http://www.w3.org/2000/svg" xmlns:xlink="http://www.w3.org/1999/xlink" width="556pt" height="410pt" viewBox="0.00 0.00 555.89 410.00">
<g id="graph0" class="graph" transform="scale(1 1) rotate(0) translate(4 406)">
<title>concept_lattice</title>
<polygon fill="#ffffff" stroke="transparent" points="-4,4 -4,-406 551.8851,-406 551.8851,4 -4,4"/>
<!-- node0 -->
<g id="node1" class="node">
<title>node0</title>
<polygon fill="none" stroke="#000000" points="329.0667,-365.5 329.0667,-401.5 383.0667,-401.5 383.0667,-365.5 329.0667,-365.5"/>
<text text-anchor="middle" x="342.3167" y="-379.3" font-family="Times,serif" font-size="14.00" fill="#000000"> </text>
<polyline fill="none" stroke="#000000" points="355.5667,-365.5 355.5667,-401.5 "/>
<text text-anchor="middle" x="369.3167" y="-379.3" font-family="Times,serif" font-size="14.00" fill="#000000"> </text>
</g>
<!-- node1 -->
<g id="node2" class="node">
<title>node1</title>
<polygon fill="none" stroke="#000000" points="218.9892,-292.5 218.9892,-328.5 301.1442,-328.5 301.1442,-292.5 218.9892,-292.5"/>
<text text-anchor="middle" x="228.7392" y="-306.3" font-family="Times,serif" font-size="14.00" fill="#000000"> </text>
<polyline fill="none" stroke="#000000" points="238.4892,-292.5 238.4892,-328.5 "/>
<text text-anchor="middle" x="269.8167" y="-306.3" font-family="Times,serif" font-size="14.00" fill="#000000">constant</text>
</g>
<!-- node0&#45;&gt;node1 -->
<g id="edge1" class="edge">
<title>node0:s-&gt;node1:n</title>
<path fill="none" stroke="#000000" d="M356.0667,-365.5C356.0667,-365.5 260.0667,-328.5 260.0667,-328.5"/>
</g>
<!-- node2 -->
<g id="node3" class="node">
<title>node2</title>
<polygon fill="none" stroke="#000000" points="410.9892,-292.5 410.9892,-328.5 493.1442,-328.5 493.1442,-292.5 410.9892,-292.5"/>
<text text-anchor="middle" x="420.7392" y="-306.3" font-family="Times,serif" font-size="14.00" fill="#000000"> </text>
<polyline fill="none" stroke="#000000" points="430.4892,-292.5 430.4892,-328.5 "/>
<text text-anchor="middle" x="461.8167" y="-306.3" font-family="Times,serif" font-size="14.00" fill="#000000">stagnant</text>
</g>
<!-- node0&#45;&gt;node2 -->
<g id="edge2" class="edge">
<title>node0:s-&gt;node2:n</title>
<path fill="none" stroke="#000000" d="M356.0667,-365.5C356.0667,-365.5 452.0667,-328.5 452.0667,-328.5"/>
</g>
<!-- node4 -->
<g id="node5" class="node">
<title>node4</title>
<polygon fill="none" stroke="#000000" points="318.8812,-292.5 318.8812,-328.5 393.2522,-328.5 393.2522,-292.5 318.8812,-292.5"/>
<text text-anchor="middle" x="328.6312" y="-306.3" font-family="Times,serif" font-size="14.00" fill="#000000"> </text>
<polyline fill="none" stroke="#000000" points="338.3812,-292.5 338.3812,-328.5 "/>
<text text-anchor="middle" x="365.8167" y="-306.3" font-family="Times,serif" font-size="14.00" fill="#000000">natural</text>
</g>
<!-- node0&#45;&gt;node4 -->
<g id="edge3" class="edge">
<title>node0:s-&gt;node4:n</title>
<path fill="none" stroke="#000000" d="M356.0667,-365.5C356.0667,-365.5 356.0667,-328.5 356.0667,-328.5"/>
</g>
<!-- node3 -->
<g id="node4" class="node">
<title>node3</title>
<polygon fill="none" stroke="#000000" points="321.4436,-219.5 321.4436,-255.5 406.6898,-255.5 406.6898,-219.5 321.4436,-219.5"/>
<text text-anchor="middle" x="354.3167" y="-233.3" font-family="Times,serif" font-size="14.00" fill="#000000">reservoir</text>
<polyline fill="none" stroke="#000000" points="387.1898,-219.5 387.1898,-255.5 "/>
<text text-anchor="middle" x="396.9398" y="-233.3" font-family="Times,serif" font-size="14.00" fill="#000000"> </text>
</g>
<!-- node1&#45;&gt;node3 -->
<g id="edge4" class="edge">
<title>node1:s-&gt;node3:n</title>
<path fill="none" stroke="#000000" d="M260.0667,-292.5C260.0667,-292.5 364.0667,-255.5 364.0667,-255.5"/>
</g>
<!-- node5 -->
<g id="node6" class="node">
<title>node5</title>
<polygon fill="none" stroke="#000000" points="246.0667,-219.5 246.0667,-255.5 300.0667,-255.5 300.0667,-219.5 246.0667,-219.5"/>
<text text-anchor="middle" x="259.3167" y="-233.3" font-family="Times,serif" font-size="14.00" fill="#000000"> </text>
<polyline fill="none" stroke="#000000" points="272.5667,-219.5 272.5667,-255.5 "/>
<text text-anchor="middle" x="286.3167" y="-233.3" font-family="Times,serif" font-size="14.00" fill="#000000"> </text>
</g>
<!-- node1&#45;&gt;node5 -->
<g id="edge5" class="edge">
<title>node1:s-&gt;node5:n</title>
<path fill="none" stroke="#000000" d="M260.0667,-292.5C260.0667,-292.5 273.0667,-255.5 273.0667,-255.5"/>
</g>
<!-- node9 -->
<g id="node10" class="node">
<title>node9</title>
<polygon fill="none" stroke="#000000" points="69.0067,-219.5 69.0067,-255.5 221.1267,-255.5 221.1267,-219.5 69.0067,-219.5"/>
<text text-anchor="middle" x="115.2911" y="-233.3" font-family="Times,serif" font-size="14.00" fill="#000000">canal channel</text>
<polyline fill="none" stroke="#000000" points="161.5755,-219.5 161.5755,-255.5 "/>
<text text-anchor="middle" x="191.3511" y="-233.3" font-family="Times,serif" font-size="14.00" fill="#000000">running</text>
</g>
<!-- node1&#45;&gt;node9 -->
<g id="edge6" class="edge">
<title>node1:s-&gt;node9:n</title>
<path fill="none" stroke="#000000" d="M260.0667,-292.5C260.0667,-292.5 145.0667,-255.5 145.0667,-255.5"/>
</g>
<!-- node2&#45;&gt;node3 -->
<g id="edge7" class="edge">
<title>node2:s-&gt;node3:n</title>
<path fill="none" stroke="#000000" d="M452.0667,-292.5C452.0667,-292.5 364.0667,-255.5 364.0667,-255.5"/>
</g>
<!-- node6 -->
<g id="node7" class="node">
<title>node6</title>
<polygon fill="none" stroke="#000000" points="425.0667,-219.5 425.0667,-255.5 479.0667,-255.5 479.0667,-219.5 425.0667,-219.5"/>
<text text-anchor="middle" x="438.3167" y="-233.3" font-family="Times,serif" font-size="14.00" fill="#000000"> </text>
<polyline fill="none" stroke="#000000" points="451.5667,-219.5 451.5667,-255.5 "/>
<text text-anchor="middle" x="465.3167" y="-233.3" font-family="Times,serif" font-size="14.00" fill="#000000"> </text>
</g>
<!-- node2&#45;&gt;node6 -->
<g id="edge8" class="edge">
<title>node2:s-&gt;node6:n</title>
<path fill="none" stroke="#000000" d="M452.0667,-292.5C452.0667,-292.5 452.0667,-255.5 452.0667,-255.5"/>
</g>
<!-- node7 -->
<g id="node8" class="node">
<title>node7</title>
<polygon fill="none" stroke="#000000" points="280.3384,-146.5 280.3384,-182.5 455.795,-182.5 455.795,-146.5 280.3384,-146.5"/>
<text text-anchor="middle" x="358.3167" y="-160.3" font-family="Times,serif" font-size="14.00" fill="#000000">lake maar pond pool tarn</text>
<polyline fill="none" stroke="#000000" points="436.295,-146.5 436.295,-182.5 "/>
<text text-anchor="middle" x="446.045" y="-160.3" font-family="Times,serif" font-size="14.00" fill="#000000"> </text>
</g>
<!-- node3&#45;&gt;node7 -->
<g id="edge9" class="edge">
<title>node3:s-&gt;node7:n</title>
<path fill="none" stroke="#000000" d="M364.0667,-219.5C364.0667,-219.5 368.0667,-182.5 368.0667,-182.5"/>
</g>
<!-- node4&#45;&gt;node5 -->
<g id="edge10" class="edge">
<title>node4:s-&gt;node5:n</title>
<path fill="none" stroke="#000000" d="M356.0667,-292.5C356.0667,-292.5 273.0667,-255.5 273.0667,-255.5"/>
</g>
<!-- node4&#45;&gt;node6 -->
<g id="edge11" class="edge">
<title>node4:s-&gt;node6:n</title>
<path fill="none" stroke="#000000" d="M356.0667,-292.5C356.0667,-292.5 452.0667,-255.5 452.0667,-255.5"/>
</g>
<!-- node5&#45;&gt;node7 -->
<g id="edge12" class="edge">
<title>node5:s-&gt;node7:n</title>
<path fill="none" stroke="#000000" d="M273.0667,-219.5C273.0667,-219.5 368.0667,-182.5 368.0667,-182.5"/>
</g>
<!-- node10 -->
<g id="node11" class="node">
<title>node10</title>
<polygon fill="none" stroke="#000000" points="0,-146.5 0,-182.5 262.1334,-182.5 262.1334,-146.5 0,-146.5"/>
<text text-anchor="middle" x="121.3167" y="-160.3" font-family="Times,serif" font-size="14.00" fill="#000000">river rivulet runnel stream torrent trickle</text>
<polyline fill="none" stroke="#000000" points="242.6334,-146.5 242.6334,-182.5 "/>
<text text-anchor="middle" x="252.3834" y="-160.3" font-family="Times,serif" font-size="14.00" fill="#000000"> </text>
</g>
<!-- node5&#45;&gt;node10 -->
<g id="edge13" class="edge">
<title>node5:s-&gt;node10:n</title>
<path fill="none" stroke="#000000" d="M273.0667,-219.5C273.0667,-219.5 131.0667,-182.5 131.0667,-182.5"/>
</g>
<!-- node6&#45;&gt;node7 -->
<g id="edge14" class="edge">
<title>node6:s-&gt;node7:n</title>
<path fill="none" stroke="#000000" d="M452.0667,-219.5C452.0667,-219.5 368.0667,-182.5 368.0667,-182.5"/>
</g>
<!-- node11 -->
<g id="node12" class="node">
<title>node11</title>
<polygon fill="none" stroke="#000000" points="420.2483,-73.5 420.2483,-109.5 547.8851,-109.5 547.8851,-73.5 420.2483,-73.5"/>
<text text-anchor="middle" x="447.3009" y="-87.3" font-family="Times,serif" font-size="14.00" fill="#000000">puddle</text>
<polyline fill="none" stroke="#000000" points="474.3535,-73.5 474.3535,-109.5 "/>
<text text-anchor="middle" x="511.1193" y="-87.3" font-family="Times,serif" font-size="14.00" fill="#000000">temporary</text>
</g>
<!-- node6&#45;&gt;node11 -->
<g id="edge15" class="edge">
<title>node6:s-&gt;node11:n</title>
<path fill="none" stroke="#000000" d="M452.0667,-219.5C452.0667,-219.5 484.0667,-109.5 484.0667,-109.5"/>
</g>
<!-- node8 -->
<g id="node9" class="node">
<title>node8</title>
<polygon fill="none" stroke="#000000" points="260.0558,-73.5 260.0558,-109.5 402.0776,-109.5 402.0776,-73.5 260.0558,-73.5"/>
<text text-anchor="middle" x="297.7953" y="-87.3" font-family="Times,serif" font-size="14.00" fill="#000000">lagoon sea</text>
<polyline fill="none" stroke="#000000" points="335.5348,-73.5 335.5348,-109.5 "/>
<text text-anchor="middle" x="368.8062" y="-87.3" font-family="Times,serif" font-size="14.00" fill="#000000">maritime</text>
</g>
<!-- node7&#45;&gt;node8 -->
<g id="edge16" class="edge">
<title>node7:s-&gt;node8:n</title>
<path fill="none" stroke="#000000" d="M368.0667,-146.5C368.0667,-146.5 331.0667,-109.5 331.0667,-109.5"/>
</g>
<!-- node12 -->
<g id="node13" class="node">
<title>node12</title>
<polygon fill="none" stroke="#000000" points="304.0667,-.5 304.0667,-36.5 358.0667,-36.5 358.0667,-.5 304.0667,-.5"/>
<text text-anchor="middle" x="317.3167" y="-14.3" font-family="Times,serif" font-size="14.00" fill="#000000"> </text>
<polyline fill="none" stroke="#000000" points="330.5667,-.5 330.5667,-36.5 "/>
<text text-anchor="middle" x="344.3167" y="-14.3" font-family="Times,serif" font-size="14.00" fill="#000000"> </text>
</g>
<!-- node8&#45;&gt;node12 -->
<g id="edge17" class="edge">
<title>node8:s-&gt;node12:n</title>
<path fill="none" stroke="#000000" d="M331.0667,-73.5C331.0667,-73.5 331.0667,-36.5 331.0667,-36.5"/>
</g>
<!-- node9&#45;&gt;node10 -->
<g id="edge18" class="edge">
<title>node9:s-&gt;node10:n</title>
<path fill="none" stroke="#000000" d="M145.0667,-219.5C145.0667,-219.5 131.0667,-182.5 131.0667,-182.5"/>
</g>
<!-- node10&#45;&gt;node12 -->
<g id="edge19" class="edge">
<title>node10:s-&gt;node12:n</title>
<path fill="none" stroke="#000000" d="M131.0667,-146.5C131.0667,-146.5 331.0667,-36.5 331.0667,-36.5"/>
</g>
<!-- node11&#45;&gt;node12 -->
<g id="edge20" class="edge">
<title>node11:s-&gt;node12:n</title>
<path fill="none" stroke="#000000" d="M484.0667,-73.5C484.0667,-73.5 331.0667,-36.5 331.0667,-36.5"/>
</g>
</g>
</svg>